# xmcd
#
# Track frame offsets:
# 150
# 13469
# 25340
# 43559
# 55935
# 77677
# 89996
# 111333
# 128029
# 144238
# 163647
# 178214
# 194860
# 195372
#
# Disc length: 2843 seconds
#
#
# Revision: 0
# Processed by: cddbd v1.5.2PL0 Copyright (c) Steve Scherf et al.
# Submitted via: FreeRIP 2.945 
#
DISCID=cb0b190e
DTITLE=Garth Brooks - Double Live (Disk 1)
DYEAR=1998
DGENRE=Country
TTITLE0=Callin' Baton Rouge
TTITLE1=Two of a Kind, Workin' on a Full House
TTITLE2=Shameless
TTITLE3=Papa Loved Mama
TTITLE4=Thunder Rolls (The Long Version)
TTITLE5=We Shall Be Free
TTITLE6=Unanswered Prayers
TTITLE7=Standing Outside the Fire
TTITLE8=Longneck Bottle (Duet W/ Steve Wariner)
TTITLE9=It's Your Song
TTITLE10=Much Too Young (To Feel This Damn Old)
TTITLE11=The River
TTITLE12=Interlude
TTITLE13=Terin' It Up (And Burnin' It Down)
EXTD=
EXTT0=
EXTT1=
EXTT2=
EXTT3=
EXTT4=
EXTT5=
EXTT6=
EXTT7=
EXTT8=
EXTT9=
EXTT10=
EXTT11=
EXTT12=
EXTT13=
PLAYORDER=
